<svg width="18" height="18" viewBox="0 0 18 18" fill="none" xmlns="http://www.w3.org/2000/svg">
<path d="M8.99967 0.333313C10.1489 0.333313 11.2511 0.789859 12.0638 1.60252C12.8765 2.41517 13.333 3.51737 13.333 4.66665C13.333 5.81592 12.8765 6.91812 12.0638 7.73078C11.2511 8.54343 10.1489 8.99998 8.99967 8.99998C7.8504 8.99998 6.7482 8.54343 5.93554 7.73078C5.12289 6.91812 4.66634 5.81592 4.66634 4.66665C4.66634 3.51737 5.12289 2.41517 5.93554 1.60252C6.7482 0.789859 7.8504 0.333313 8.99967 0.333313ZM8.99967 11.1666C13.788 11.1666 17.6663 13.1058 17.6663 15.5V17.6666H0.333008V15.5C0.333008 13.1058 4.21134 11.1666 8.99967 11.1666Z" fill="#333333"/>
</svg>
