<svg width="14" height="11" viewBox="0 0 14 11" fill="none" xmlns="http://www.w3.org/2000/svg">
<path d="M10.1182 4.61796L8.31823 10.5H6.10285L4.30798 4.61283C4.29259 4.52053 4.21054 4.44873 4.10798 4.44873C3.99516 4.44873 3.90798 4.54104 3.90798 4.64873V10.4949H0.831055V0.443604H3.47208H4.2567C4.8208 0.443604 5.41567 0.884629 5.57977 1.42309L7.07721 6.32053C7.15413 6.56668 7.27208 6.56155 7.349 6.32053L8.84644 1.42309C9.01054 0.879501 9.60541 0.443604 10.1695 0.443604H10.9541H13.5952V10.4949H10.5182V4.64873C10.5182 4.64873 10.5182 4.64873 10.5182 4.6436C10.5182 4.53078 10.4259 4.4436 10.3182 4.4436C10.2157 4.44873 10.1336 4.52053 10.1182 4.61796Z" fill="#333333"/>
</svg>
